# WaveFront *.obj file (generated by Autodesk ATF)

mtllib Triangular Prism v2.mtl

g Body1

v 31.700000 4.853646 0.396234
v 22.000000 4.853646 0.396234
v 22.000000 4.858657 11.396233
v 22.000000 4.863668 22.396231
v 31.700000 4.863668 22.396231
v 31.700000 4.858657 11.396233
v 26.846534 -3.548799 0.400062
v 26.846534 -3.538777 22.400059
v 26.846534 -3.543788 11.400060
vt 0.000000 0.000000 0.000000
vt 9.700000 0.000000 0.000000
vt 0.000000 11.000000 0.000000
vt 9.700000 11.000000 0.000000
vt 0.000000 22.000000 0.000000
vt 9.700000 22.000000 0.000000
vt 0.000000 0.000000 0.000000
vt 9.703465 -0.000000 0.000000
vt -0.000000 11.000000 0.000000
vt 9.703465 11.000000 0.000000
vt 0.000000 22.000000 0.000000
vt 9.703465 22.000000 0.000000
vt 0.000000 0.000000 0.000000
vt 9.700000 -0.000000 0.000000
vt -0.000000 11.000000 0.000000
vt 9.700000 11.000000 0.000000
vt -0.000000 22.000000 0.000000
vt 9.700000 22.000000 0.000000
vt -4.201327 0.005559 0.000000
vt 4.194905 -4.851732 0.000000
vt 4.201327 4.851732 0.000000
vt 4.851732 -4.194905 0.000000
vt -0.005559 4.201327 0.000000
vt -4.851732 -4.201327 0.000000
vn 0.000000 1.000000 -0.000456
vn 0.000000 1.000000 -0.000456
vn 0.000000 1.000000 -0.000456
vn 0.000000 1.000000 -0.000456
vn 0.000000 1.000000 -0.000456
vn 0.000000 1.000000 -0.000456
vn 0.865922 -0.500179 0.000228
vn 0.865922 -0.500179 0.000228
vn 0.865922 -0.500179 0.000228
vn 0.865922 -0.500179 0.000228
vn 0.865922 -0.500179 0.000228
vn 0.865922 -0.500179 0.000228
vn -0.866232 -0.499643 0.000228
vn -0.866232 -0.499643 0.000228
vn -0.866232 -0.499643 0.000228
vn -0.866232 -0.499643 0.000228
vn -0.866232 -0.499643 0.000228
vn -0.866232 -0.499643 0.000228
vn -0.000000 0.000456 1.000000
vn -0.000000 0.000456 1.000000
vn -0.000000 0.000456 1.000000
vn 0.000000 -0.000456 -1.000000
vn 0.000000 -0.000456 -1.000000
vn 0.000000 -0.000456 -1.000000
usemtl Steel_-_Satin
f 1/1/1 2/2/2 6/3/3
f 6/3/3 2/2/2 3/4/4
f 6/3/3 3/4/4 5/5/5
f 5/5/5 3/4/4 4/6/6
f 7/7/7 1/8/8 9/9/9
f 9/9/9 1/8/8 6/10/10
f 9/9/9 6/10/10 8/11/11
f 8/11/11 6/10/10 5/12/12
f 2/13/13 7/14/14 3/15/15
f 3/15/15 7/14/14 9/16/16
f 3/15/15 9/16/16 4/17/17
f 4/17/17 9/16/16 8/18/18
f 4/19/19 8/20/20 5/21/21
f 7/22/22 2/23/23 1/24/24
# 9 vertices
# 24 texture params
# 24 normals
# 14 facets

# 1 groups
